<svg version="1.2" xmlns="http://www.w3.org/2000/svg" viewBox="0 0 1515 604" width="1515" height="604">
	<title>affirm-svg</title>
	<style>
		.s0 { fill: #12181f } 
		.s1 { fill: #4a4af4 } 
	</style>
	<path id="Layer" fill-rule="evenodd" class="s0" d="m231.6 434.4v162.4h-66.6v-38.7c-15.2 26-47 45.9-82.8 45.9-50 0-82.2-27.5-82.2-72.3 0-56.8 57.9-77.1 131.7-86.5 19.6-2.5 30.1-9 30.1-22 0-19.2-15.6-28.6-44.2-28.6-30 0-63.3 15.9-83.9 34.7l-23.6-49.2c25.7-20.2 73.1-39.8 114-39.8 60.8 0 107.5 27.2 107.5 94.1zm-71.6 49.5c-57.6 6.2-89.1 15.6-89.1 43.8 0 15.2 9.4 24.2 28.3 24.2 35.4 0 61.1-30.4 60.8-68zm774.4-143.6c9.4 0 21 1.1 31.9 5.8l-13 65.8c-8.4-6.1-21-9-30.4-9-24.3 0-58.7 16.6-58.7 73.8v120.1h-71.3v-249.2h66.6v41.9c15.2-32.9 38.4-49.2 74.9-49.2zm445.9 84.3v172.2h-71.3v-149.8c0-32.9-19.9-46.6-38.7-46.6-23.5 0-47.1 21.3-47.1 68v128.4h-71.6v-149.4c0-34-18.8-47-39.1-47-22.4 0-46.7 22-46.7 68v128.4h-71.3v-249.2h68.8v37.6c12.3-23.9 38.3-44.9 76-44.9 34.7 0 63.3 16 77.1 43.8 14.8-21.3 43-43.8 80.7-43.8 45.6 0 83.2 28.2 83.2 84.3zm-799.4-201.4c40.5 0 62.9 14.4 62.9 14.4l-22 50.3c0 0-13.8-8-31.9-8-16.3 0-35.1 9.4-35.1 42.4v25.3h64.8v54.9h-64.8v194.3h-71.3v-194.3h-108.2v194.3h-71.3v-193.9h-41.3v-55h41.3v-18.4c0-80.7 51.8-106.3 97.4-106.3 28.5 0 49.9 6.8 62.9 14.4l-22.1 50.3c-10.1-5.8-22.4-8-31.8-8-16.3 0-35.1 9.4-35.1 42.4v25.3h108.2v-18.5c0-80.6 52.1-106.3 97.4-105.9zm81 124.4h71.3v249.2h-71.3z"/>
	<path id="Layer" class="s1" d="m1077.4 0c-192.5 0-364.1 133.5-412.6 305.3h69.9c40.5-128.1 178.4-240.2 342.7-240.2 199.8 0 372 151.9 372 388.4 0 53.2-6.8 101-19.9 143.3h67.7l0.7-2.2c11.2-43.8 16.7-91.1 16.7-141.1 0-263.6-192.2-453.5-437.2-453.5z"/>
</svg>