<svg xmlns="http://www.w3.org/2000/svg" width="48" height="48" viewBox="0 0 48 48" id="bedframes-48" role="img" aria-labelledby="bedframes-48" class="size-10 shrink-0"><g fill="none"><g clip-path="url(#clip0_10866_24148)"><path stroke="currentColor" stroke-width="1.5" d="M10.987 34.357V35a.5.5 0 0 0 1 0v-.643m24.5 0V35a.5.5 0 0 0 1 0v-.643M16.007 19.71h16.59v-6.97c0-.41-.32-.74-.72-.74h-15.15c-.4 0-.72.33-.72.74v6.97Zm0 0h16.631c.02.06.18.12.22.18l4.97 7.86h-27.01l4.97-7.86c.03-.06.19-.12.22-.18Zm8.285 8.04v6.34m-.376-21.896v7.316M9.127 27.82h30.33c.08 0 .14.06.14.14v5.99c0 .08-.06.14-.14.14H9.127c-.08 0-.14-.06-.14-.14v-5.99c0-.08.06-.14.14-.14Z"></path></g><defs><clipPath id="clip0_10866_24148"><path fill="#fff" d="M0 0h48v48H0z"></path></clipPath></defs></g></svg>