<svg viewBox="0 0 52 52" fill="none" xmlns="http://www.w3.org/2000/svg" class="size-11 md:size-[52px]"><path d="M32.0205 35.9452V16.0552C32.0205 15.176 31.6734 14.3329 31.0556 13.7112C30.4378 13.0895 29.5998 12.7402 28.7261 12.7402H10.6069C9.73317 12.7402 8.89523 13.0895 8.27741 13.7112C7.65959 14.3329 7.3125 15.176 7.3125 16.0552V34.2877C7.3125 34.7273 7.48604 35.1488 7.79495 35.4597C8.10386 35.7705 8.52283 35.9452 8.9597 35.9452H12.2541M12.2541 35.9452C12.2541 37.776 13.729 39.2601 15.5485 39.2601C17.3679 39.2601 18.8429 37.776 18.8429 35.9452M12.2541 35.9452C12.2541 34.1143 13.729 32.6302 15.5485 32.6302C17.3679 32.6302 18.8429 34.1143 18.8429 35.9452M33.6677 35.9452H18.8429M33.6677 35.9452C33.6677 37.776 35.1426 39.2601 36.9621 39.2601C38.7815 39.2601 40.2565 37.776 40.2565 35.9452M33.6677 35.9452C33.6677 34.1143 35.1426 32.6302 36.9621 32.6302C38.7815 32.6302 40.2565 34.1143 40.2565 35.9452M40.2565 35.9452H43.5509C43.9877 35.9452 44.4067 35.7705 44.7156 35.4597C45.0245 35.1488 45.1981 34.7273 45.1981 34.2877V28.2378C45.1974 27.8617 45.0696 27.4969 44.8357 27.2035L39.1034 19.9934C38.9494 19.7993 38.7539 19.6425 38.5315 19.5346C38.3092 19.4268 38.0655 19.3706 37.8186 19.3702H32.0205" stroke="currentColor" stroke-width="1.625" stroke-linecap="round" stroke-linejoin="round"></path><path d="M20.1616 30.0625C23.7515 30.0625 26.6616 27.1524 26.6616 23.5625C26.6616 19.9726 23.7515 17.0625 20.1616 17.0625C16.5718 17.0625 13.6616 19.9726 13.6616 23.5625C13.6616 27.1524 16.5718 30.0625 20.1616 30.0625Z" stroke="currentColor" stroke-width="1.21875" stroke-linecap="round" stroke-linejoin="round"></path><path d="M16.6816 22.2598H21.2474C22.5703 22.2598 23.6417 23.3312 23.6417 24.6541C23.6417 25.977 22.5703 27.0484 21.2474 27.0484H18.8797" stroke="currentColor" stroke-width="1.21875" stroke-linecap="round" stroke-linejoin="round"></path><path d="M16.343 22.26L18.5288 20.0742" stroke="currentColor" stroke-width="0.930324" stroke-linecap="round" stroke-linejoin="round"></path><path d="M16.343 22.2598L18.5288 24.4435" stroke="currentColor" stroke-width="0.930324" stroke-linecap="round" stroke-linejoin="round"></path></svg>