<svg xmlns="http://www.w3.org/2000/svg" fill="none" viewBox="0 0 72 72" aria-label="Back pain badge" class="size-[72px] text-icon-soft-slate"><path stroke="#869CB2" stroke-linecap="round" stroke-linejoin="round" stroke-width="2.793" d="M22.765 59.283c-3.082-7.419-6.99-22.404 3.162-28.826 2.364-1.812 5.814-6.271 4.585-14.771-1.534-10.614 14.962-12.277 17.392-2.302 1.066 5.797.513 17.717-8.465 15.26 6.086 3.19 12.199 4.396 13.069 12.234.39 3.523-.257 9.736-1.553 13.001"></path><path stroke="#869CB2" stroke-linecap="round" stroke-width="2.793" d="M45.157 45.295c-.982 4.744-3.245 12.49 1.131 19.963"></path><path fill="#869CB2" fill-rule="evenodd" d="M33.997 60.302a.783.783 0 0 1-.423-.123.738.738 0 0 1-.28-.328.705.705 0 0 1 .164-.797.791.791 0 0 1 .83-.159c.14.055.258.15.342.27a.711.711 0 0 1-.095.923.777.777 0 0 1-.538.214Zm-.954 2.196a.662.662 0 0 1-.358-.104.625.625 0 0 1-.237-.278.596.596 0 0 1 .14-.674.668.668 0 0 1 .702-.134.64.64 0 0 1 .289.229.601.601 0 0 1-.081.78.658.658 0 0 1-.455.181Zm1.526-8.501a1.18 1.18 0 0 0-.638.185 1.114 1.114 0 0 0-.423.495c-.087.202-.11.423-.065.637.044.214.154.41.314.565a1.191 1.191 0 0 0 1.25.239c.21-.084.39-.225.516-.407a1.072 1.072 0 0 0-.143-1.392 1.187 1.187 0 0 0-.812-.323Zm-.105 2.42c-.203 0-.402.058-.571.167a.997.997 0 0 0-.379.443.951.951 0 0 0-.058.57c.04.192.137.368.281.506a1.057 1.057 0 0 0 1.12.214 1.02 1.02 0 0 0 .461-.363.96.96 0 0 0-.127-1.247 1.05 1.05 0 0 0-.727-.29Zm-.247-6.054a1.33 1.33 0 0 0-.72.21c-.214.137-.38.332-.478.56a1.2 1.2 0 0 0-.074.719c.05.242.174.463.355.638a1.346 1.346 0 0 0 1.413.27c.237-.095.44-.254.582-.46a1.212 1.212 0 0 0-.162-1.572 1.324 1.324 0 0 0-.916-.365Zm-.802-3.361c-.28 0-.553.08-.786.228a1.38 1.38 0 0 0-.52.61 1.31 1.31 0 0 0-.08.785c.054.264.188.505.386.696a1.46 1.46 0 0 0 1.541.294c.258-.103.48-.277.635-.5a1.32 1.32 0 0 0-.176-1.716 1.444 1.444 0 0 0-1-.398Zm-.971-3.902a1.89 1.89 0 0 0-1.02.296 1.79 1.79 0 0 0-.677.791 1.7 1.7 0 0 0-.105 1.02c.071.342.246.657.503.903.257.247.584.415.94.483s.726.033 1.061-.1c.336-.134.622-.36.824-.65.202-.29.31-.632.31-.981a1.73 1.73 0 0 0-.539-1.246 1.875 1.875 0 0 0-1.297-.517Zm-.779-3.633c-.28 0-.553.08-.786.229a1.369 1.369 0 0 0-.52.61 1.309 1.309 0 0 0-.08.784c.054.264.188.506.386.696.198.19.45.32.724.372.274.052.559.025.817-.078.258-.102.48-.277.635-.5.155-.223.238-.486.238-.755 0-.36-.149-.706-.414-.96a1.444 1.444 0 0 0-1-.398Zm-.18-3.632c-.256 0-.507.073-.72.21-.213.137-.38.332-.477.56a1.2 1.2 0 0 0-.074.719c.05.242.173.464.355.638a1.342 1.342 0 0 0 1.413.27c.236-.094.439-.254.581-.459a1.209 1.209 0 0 0-.161-1.572 1.325 1.325 0 0 0-.917-.366Zm.507-2.422c-.227 0-.449.064-.638.185a1.112 1.112 0 0 0-.422.495 1.064 1.064 0 0 0 .248 1.202 1.192 1.192 0 0 0 1.25.239 1.14 1.14 0 0 0 .516-.407 1.072 1.072 0 0 0-.143-1.392 1.171 1.171 0 0 0-.811-.322Zm.754-2.423c-.203 0-.402.058-.571.167a.997.997 0 0 0-.38.443.951.951 0 0 0-.058.57c.04.192.137.368.281.506a1.067 1.067 0 0 0 1.12.214 1.02 1.02 0 0 0 .462-.364.96.96 0 0 0-.128-1.246 1.048 1.048 0 0 0-.726-.29Zm.776-2.419a.783.783 0 0 0-.423.124.738.738 0 0 0-.28.328.705.705 0 0 0 .164.797.791.791 0 0 0 .83.159.756.756 0 0 0 .342-.27.71.71 0 0 0-.095-.924.778.778 0 0 0-.538-.214Zm.952-1.511a.663.663 0 0 0-.358.103.625.625 0 0 0-.238.278.596.596 0 0 0 .14.675.668.668 0 0 0 .702.134.638.638 0 0 0 .288-.229.601.601 0 0 0-.08-.78.656.656 0 0 0-.454-.181Z" clip-rule="evenodd"></path></svg>