<svg xmlns="http://www.w3.org/2000/svg" width="48" height="48" viewBox="0 0 48 48" id="shipping-48" role="img" aria-labelledby="shipping-48" class="inline-flex size-7 stroke-1 max-md:-mt-0.5"><path fill="none" stroke="currentColor" stroke-linecap="round" stroke-linejoin="round" stroke-width="1.5" d="M28.641 32.006V15.994c0-.708-.28-1.387-.776-1.887a2.64 2.64 0 0 0-1.876-.782H11.402c-.703 0-1.378.281-1.875.782-.498.5-.777 1.179-.777 1.887v14.678c0 .354.14.693.388.944.25.25.586.39.938.39h2.652m0 0a2.66 2.66 0 0 0 2.652 2.67 2.66 2.66 0 0 0 2.653-2.67m-5.305 0a2.66 2.66 0 0 1 2.652-2.668 2.66 2.66 0 0 1 2.653 2.668m11.934 0H18.033m11.934 0a2.66 2.66 0 0 0 2.653 2.67 2.66 2.66 0 0 0 2.652-2.67m-5.305 0a2.66 2.66 0 0 1 2.653-2.668 2.66 2.66 0 0 1 2.652 2.668m0 0h2.652c.352 0 .689-.14.938-.39.248-.25.388-.59.388-.944v-4.87a1.34 1.34 0 0 0-.292-.833l-4.614-5.805a1.33 1.33 0 0 0-1.035-.501h-4.668"></path></svg>