<svg xmlns="http://www.w3.org/2000/svg" width="56" height="56" viewBox="0 0 56 56" id="sleep-trial-56" role="img" aria-labelledby="sleep-trial-56" class="size-11 md:size-[52px]"><path fill="currentColor" d="m33.784 25.341-.711.467.002.003zm1.715 5.08-.848.052.04.653.642.128zm2.477 1.17.54-.657-.005-.004zm11.045-5.352.828.19.262-1.14-1.165.103zm-.227.988.828.192v-.001zm-3.125 5.375.573.628.002-.003zm-5.67 2.682-.122-.842-.84.121.12.84zm.045.704h-.85v.007zm-1.636 3.966-.6-.602-.004.004zm-3.988 1.681v.85h.013zM9.308 39.33l-.598.603.002.002zm0-11.113-.594-.608-.004.005zm6.261-2.295v.85zM19.49 22l-.42-.74-.004.003zm8.897-.83-.283.802.782.276.296-.775zm10-6.806-.005.85h.004zm.977 0 .1-.844-.05-.006h-.05zm1.045.125.78.34.455-1.049-1.134-.135zm-.42.966-.78-.34-.022.052-.016.054zm-.137 8.408.697-.487-.003-.003zm8.136 2.466.052.848h.011l.011-.002zm-29.823 2.387a.85.85 0 0 0 1.575-.64zm17.895 2.743a.85.85 0 1 0 .532-1.615zm-5.897.362a.85.85 0 1 0 1.393.974zm-1.674-10.594-.177.831c.735.157 1.682.704 2.611 1.462.915.747 1.709 1.614 2.151 2.287l.71-.467.711-.466c-.558-.85-1.48-1.841-2.497-2.67-1.002-.819-2.202-1.567-3.331-1.808zm5.295 4.113-.708.47a9.47 9.47 0 0 1 1.576 4.662l.848-.053.849-.053a11.17 11.17 0 0 0-1.856-5.496zm1.716 5.08-.166.833c.77.154 1.496.501 2.108.997l.535-.66.535-.661a6.6 6.6 0 0 0-2.845-1.343zm2.477 1.17-.54.656c.296.243.689.642 1.019 1.125.333.488.566 1.008.62 1.503l.844-.092.845-.091c-.094-.869-.48-1.655-.905-2.278a7.3 7.3 0 0 0-1.343-1.48zm11.045-5.352-.829-.19-.227.988.829.19.828.19.227-.988zm-.227.988-.828-.192a9.7 9.7 0 0 1-2.873 4.942l.576.625.575.625a11.4 11.4 0 0 0 3.378-5.807zm-3.125 5.375-.573-.628a9.83 9.83 0 0 1-5.219 2.468l.122.841.121.842a11.54 11.54 0 0 0 6.122-2.895zm-5.67 2.682-.842.12q.039.282.037.584h1.7c0-.254-.012-.535-.054-.825zm.045.704-.85.007a4.7 4.7 0 0 1-1.387 3.358l.601.6.601.602a6.4 6.4 0 0 0 1.885-4.574zm-1.636 3.966-.604-.598a4.9 4.9 0 0 1-3.397 1.43l.013.85.013.85a6.6 6.6 0 0 0 4.58-1.935zm-3.988 1.681v-.85H14.956v1.7H34.42zm-19.464 0v-.85a7.2 7.2 0 0 1-5.051-2.062l-.597.606-.596.605a8.9 8.9 0 0 0 6.244 2.551zM9.308 39.33l.6-.604a6.99 6.99 0 0 1-2.079-4.953h-1.7c0 2.31.934 4.526 2.58 6.16zM6.98 33.772h.85c0-1.85.748-3.633 2.078-4.953l-.599-.603-.598-.603a8.69 8.69 0 0 0-2.581 6.16zm2.33-5.556.593.608a7.24 7.24 0 0 1 5.054-2.053v-1.7a8.94 8.94 0 0 0-6.242 2.537zm5.647-2.295v.85h.613v-1.7h-.613zm.613 0 .737.422a9.8 9.8 0 0 1 3.608-3.606l-.425-.736-.424-.737a11.5 11.5 0 0 0-4.233 4.234zM19.49 22l.42.738a10 10 0 0 1 4.955-1.32v-1.7c-2.037 0-4.033.54-5.795 1.543zm5.375-1.432v.85c1.108 0 2.206.188 3.239.553l.283-.8.284-.802a11.4 11.4 0 0 0-3.806-.651zm3.522.602.795.303a9.7 9.7 0 0 1 3.604-4.543l-.479-.703-.478-.702a11.4 11.4 0 0 0-4.236 5.343zm3.92-4.943.48.703a9.87 9.87 0 0 1 5.595-1.716l.004-.85.005-.85c-2.345-.012-4.638.7-6.562 2.011zm6.08-1.863v.85h.977v-1.7h-.978zm.977 0-.101.844 1.045.125.1-.844.102-.844-1.045-.125zm1.045.125-.78-.34-.42.966.78.34.779.339.42-.966zm-.42.966-.818-.234c.044-.154-.614 1.414-.927 3.14-.319 1.762-.397 4.137.914 5.993l.694-.49.694-.491c-.904-1.28-.926-3.07-.629-4.709.304-1.674.822-2.742.889-2.976zm-.137 8.408-.697.487c1.587 2.27 4.739 3.081 8.885 2.827l-.052-.848-.052-.849c-4.013.246-6.338-.602-7.387-2.104zm8.136 2.466.074.847 1.034-.091-.074-.847-.075-.847-1.034.091zm-32.418-.41v.85h-.007.005l.045.003q.069.004.208.025c.185.03.444.091.727.213.553.238 1.212.71 1.617 1.706l.787-.32.788-.32c-.602-1.48-1.633-2.246-2.52-2.628a4.8 4.8 0 0 0-1.485-.371l-.109-.006-.035-.001h-.019c-.001 0-.002 0-.002.85m20.756 4.733.265-.808h-.003l-.005-.002-.013-.005-.042-.012-.142-.04a7.039 7.039 0 0 0-2.105-.208c-1.294.073-2.943.563-4.118 2.244l.696.487.697.487c.788-1.128 1.872-1.467 2.82-1.52a5.3 5.3 0 0 1 1.685.185h.002-.002z"></path></svg>